<?xml version="1.0" encoding="UTF-8" standalone="no"?>
<!-- Created with Inkscape (http://www.inkscape.org/) -->

<svg
   width="200.00006mm"
   height="199.99998mm"
   viewBox="0 0 200.00006 199.99998"
   version="1.1"
   id="svg1"
   xml:space="preserve"
   xmlns:xlink="http://www.w3.org/1999/xlink"
   xmlns="http://www.w3.org/2000/svg"
   xmlns:svg="http://www.w3.org/2000/svg"><defs
     id="defs1"><linearGradient
       id="linearGradient16"><stop
         style="stop-color:#ffffff;stop-opacity:1;"
         offset="0"
         id="stop15" /><stop
         style="stop-color:#ffffff;stop-opacity:0;"
         offset="1"
         id="stop16" /></linearGradient><linearGradient
       id="linearGradient13"><stop
         style="stop-color:#ffffff;stop-opacity:1;"
         offset="0"
         id="stop12" /><stop
         style="stop-color:#ffffff;stop-opacity:0;"
         offset="1"
         id="stop13" /></linearGradient><radialGradient
       xlink:href="#linearGradient16"
       id="radialGradient11"
       cx="-950.68213"
       cy="345.74655"
       fx="-950.68213"
       fy="345.74655"
       r="28.889444"
       gradientTransform="matrix(1.8995108,-1.4684156e-8,0,1.8995966,-210.79196,-350.72452)"
       gradientUnits="userSpaceOnUse" /><radialGradient
       xlink:href="#linearGradient13"
       id="radialGradient11-0-5"
       cx="-950.68213"
       cy="345.74655"
       fx="-950.68213"
       fy="345.74655"
       r="28.889444"
       gradientTransform="matrix(1.8995108,-1.4684156e-8,0,1.8995966,-182.72855,-378.8971)"
       gradientUnits="userSpaceOnUse" /><radialGradient
       xlink:href="#linearGradient16"
       id="radialGradient11-9"
       cx="-950.68213"
       cy="345.74655"
       fx="-950.68213"
       fy="345.74655"
       r="28.889444"
       gradientTransform="matrix(1.8995108,-1.4684156e-8,0,1.8995966,-196.76027,-364.75626)"
       gradientUnits="userSpaceOnUse" /></defs><g
     id="layer1"
     transform="translate(2076.6065,-166.03641)"><rect
       style="fill:#000000;fill-opacity:1;stroke-width:2.64583;stroke-linejoin:round"
       id="rect4-45"
       width="200"
       height="200"
       x="-2076.6064"
       y="166.03639"
       ry="0" /><path
       id="rect9"
       style="fill:url(#radialGradient11);stroke:none;stroke-width:2.64583;stroke-linejoin:round;stroke-dasharray:none;stroke-opacity:1"
       d="m -2019.5276,251.17613 v 47.86219 a 9.921875,9.921875 0 0 0 2.9047,7.01611 9.921875,9.921875 0 0 0 7.0161,2.90473 v 10e-4 h 0.014 47.8441 v -14.0317 h -33.8124 -0.014 a 9.921875,9.921875 0 0 1 -7.0161,-2.90577 9.921875,9.921875 0 0 1 -0.8599,-0.98289 9.921875,9.921875 0 0 1 -0.2878,-0.43098 9.921875,9.921875 0 0 1 -0.4351,-0.65474 9.921875,9.921875 0 0 1 -0.2796,-0.56741 9.921875,9.921875 0 0 1 -0.2951,-0.60513 9.921875,9.921875 0 0 1 -0.1974,-0.58187 9.921875,9.921875 0 0 1 -0.2196,-0.66043 9.921875,9.921875 0 0 1 -0.1178,-0.59583 9.921875,9.921875 0 0 1 -0.1303,-0.68419 9.921875,9.921875 0 0 1 -0.042,-0.64648 9.921875,9.921875 0 0 1 -0.04,-0.60616 v -0.10904 -33.72145 z" /><path
       id="rect9-0"
       style="fill:url(#radialGradient11-9);stroke:none;stroke-width:2.64583;stroke-linejoin:round;stroke-dasharray:none;stroke-opacity:1"
       d="m -2005.4959,237.14439 v 47.86219 a 9.921875,9.921875 0 0 0 2.9047,7.01611 9.921875,9.921875 0 0 0 7.0161,2.90473 v 0.001 h 0.014 47.8441 v -14.0317 h -33.8124 -0.014 a 9.921875,9.921875 0 0 1 -7.0161,-2.90577 9.921875,9.921875 0 0 1 -0.8599,-0.98289 9.921875,9.921875 0 0 1 -0.2878,-0.43098 9.921875,9.921875 0 0 1 -0.4351,-0.65474 9.921875,9.921875 0 0 1 -0.2796,-0.56741 9.921875,9.921875 0 0 1 -0.2951,-0.60513 9.921875,9.921875 0 0 1 -0.1974,-0.58187 9.921875,9.921875 0 0 1 -0.2196,-0.66043 9.921875,9.921875 0 0 1 -0.1178,-0.59583 9.921875,9.921875 0 0 1 -0.1303,-0.68419 9.921875,9.921875 0 0 1 -0.042,-0.64648 9.921875,9.921875 0 0 1 -0.04,-0.60616 v -0.10904 -33.72145 z" /><path
       id="rect9-7-2"
       style="fill:url(#radialGradient11-0-5);stroke:none;stroke-width:2.64583;stroke-linejoin:round;stroke-dasharray:none;stroke-opacity:1"
       d="m -1991.4641,223.00361 v 47.86219 0 a 9.921875,9.921875 0 0 0 2.9047,7.01611 9.921875,9.921875 0 0 0 7.0161,2.90473 v 0.001 h 0.014 47.8441 v -19.84375 l -32.0941,5.65908 a 9.921875,9.921875 0 0 1 0,5.2e-4 l -0.01,0.002 v -5.2e-4 a 9.921875,9.921875 0 0 1 -8.7385,-2.75487 9.921875,9.921875 0 0 1 -2.7544,-8.739 h -10e-4 v -0.0134 l 5.6591,-32.09416 z" /></g></svg>
